<?xml version="1.0" standalone="no"?>
<!DOCTYPE svg PUBLIC "-//W3C//DTD SVG 20010904//EN"
 "http://www.w3.org/TR/2001/REC-SVG-20010904/DTD/svg10.dtd">
<svg version="1.0" xmlns="http://www.w3.org/2000/svg"
 width="600.000000pt" height="600.000000pt" viewBox="0 0 600.000000 600.000000"
 preserveAspectRatio="xMidYMid meet">
<metadata>
Created by potrace 1.14, written by Peter Selinger 2001-2017
</metadata>
<g transform="translate(0.000000,600.000000) scale(0.100000,-0.100000)"
fill="#000000" stroke="none">
<path d="M3993 5498 c-19 -23 -24 -57 -13 -77 8 -17 4 -33 -24 -88 -19 -38
-48 -83 -65 -102 -38 -44 -79 -127 -87 -180 -4 -22 -10 -41 -15 -41 -5 0 -42
18 -82 39 -118 63 -202 84 -342 84 -119 1 -189 -5 -275 -25 -25 -5 -56 -12
-70 -14 -14 -3 -59 -13 -100 -23 -49 -12 -106 -18 -165 -17 -82 2 -159 -4
-255 -19 -104 -16 -181 -52 -261 -120 -48 -41 -101 -70 -266 -147 -50 -23 -66
-18 -53 16 5 13 7 26 5 27 -2 2 -6 33 -9 69 -7 78 -11 104 -32 192 -15 62 -18
67 -36 57 -10 -6 -36 -29 -57 -52 -21 -23 -60 -66 -86 -94 -26 -29 -55 -53
-65 -53 -50 0 -172 -145 -224 -265 -14 -34 -24 -43 -60 -53 -53 -16 -156 -107
-191 -169 -14 -26 -39 -84 -55 -130 -23 -66 -45 -103 -103 -176 -41 -50 -93
-120 -115 -154 -23 -33 -64 -85 -93 -114 -38 -39 -50 -58 -46 -75 4 -24 -35
-70 -80 -93 -41 -21 -24 -30 44 -25 125 10 268 13 290 8 12 -3 20 -11 18 -17
-2 -7 -6 -28 -9 -49 -7 -48 -44 -144 -62 -162 -8 -8 -14 -19 -14 -25 0 -16
-161 -335 -172 -342 -5 -3 -9 -10 -9 -15 0 -5 -44 -99 -99 -209 -121 -245
-128 -263 -145 -348 -23 -121 0 -259 53 -315 6 -7 12 -20 12 -29 0 -8 49 -63
108 -122 60 -58 121 -127 136 -153 25 -44 63 -139 72 -183 12 -58 11 -171 -1
-218 -26 -96 -28 -103 -16 -87 9 12 11 9 11 -14 0 -24 2 -27 15 -16 9 7 18 10
22 6 3 -3 1 -6 -4 -6 -12 0 -12 -25 0 -36 4 -4 7 1 7 12 0 15 2 16 9 4 6 -8 7
-18 5 -22 -5 -7 10 -12 28 -9 4 0 10 -8 13 -19 4 -11 11 -20 17 -20 6 0 8 -3
5 -7 -4 -3 2 -13 13 -20 11 -8 18 -18 15 -23 -3 -5 4 -12 16 -15 11 -4 18 -9
15 -12 -3 -3 5 -14 17 -24 12 -10 18 -18 14 -19 -4 0 -2 -6 5 -14 7 -8 17 -11
22 -8 5 3 7 -2 3 -11 -3 -9 -3 -16 1 -15 11 4 62 -44 62 -59 0 -7 5 -12 12
-10 6 1 17 -9 25 -23 7 -14 13 -21 13 -16 0 6 7 1 15 -10 8 -10 14 -14 13 -9
-2 8 11 92 18 118 1 4 2 41 3 84 1 75 7 89 17 42 8 -40 6 -161 -4 -209 -11
-52 -12 -81 -1 -75 3 3 12 -2 19 -10 22 -26 36 -16 50 36 8 27 16 52 19 54 4
2 7 -28 8 -67 2 -78 23 -123 53 -115 18 5 53 -26 43 -37 -4 -3 4 -6 16 -6 14
0 20 -4 15 -12 -5 -7 -3 -8 6 -3 10 6 9 11 -5 21 -21 16 -17 28 4 14 8 -4 15
-19 16 -32 1 -12 7 -24 13 -24 7 -1 17 -2 23 -3 5 0 7 -6 3 -12 -4 -8 0 -8 15
0 18 10 20 9 14 -5 -4 -12 -3 -15 5 -10 7 4 12 2 12 -4 0 -6 4 -9 9 -6 5 3 11
0 14 -8 6 -16 84 -63 112 -68 11 -1 23 -7 27 -13 7 -10 12 -11 44 -14 8 0 13
-5 10 -10 -3 -4 6 -7 19 -5 14 1 25 -3 25 -9 0 -5 3 -8 6 -4 4 3 20 -1 36 -9
16 -8 33 -12 38 -9 6 3 10 1 10 -5 0 -7 7 -10 15 -6 10 3 15 -1 16 -12 0 -10
3 -12 6 -5 3 9 10 10 22 3 10 -5 21 -6 25 -3 3 3 6 1 6 -6 0 -7 5 -9 11 -5 7
4 20 -4 31 -17 10 -13 18 -19 17 -14 -3 22 2 27 14 16 8 -6 22 -12 33 -14 10
-1 25 -6 32 -10 6 -5 12 -5 12 -1 0 4 7 -1 16 -12 8 -10 13 -13 9 -6 -5 10 0
11 22 6 15 -4 30 -10 33 -13 3 -3 19 -8 35 -10 17 -1 34 -6 40 -9 5 -3 22 -7
39 -9 16 -2 35 -8 43 -14 7 -6 13 -9 13 -6 0 3 18 1 40 -4 63 -14 112 -21 155
-22 22 -1 43 -6 47 -11 4 -6 13 -5 22 3 9 8 16 9 16 4 0 -5 7 -10 15 -10 8 0
15 5 15 11 0 6 4 5 9 -3 5 -8 19 -12 35 -9 15 3 23 1 19 -5 -3 -5 0 -7 8 -5 8
3 22 1 31 -3 10 -6 19 -5 23 1 4 7 12 7 18 2 7 -5 63 -10 126 -11 63 -1 118
-4 123 -7 4 -3 8 0 8 7 0 7 7 4 16 -7 8 -10 13 -13 9 -6 -5 9 7 12 47 12 107
0 213 5 225 13 6 4 14 3 18 -3 4 -6 13 -7 23 -1 10 5 34 8 55 7 20 -1 37 2 37
6 0 5 14 6 31 3 17 -3 28 -2 26 2 -3 5 13 9 34 10 29 2 38 -1 34 -10 -4 -6 -1
-5 7 4 7 9 20 16 28 16 8 0 35 4 60 8 25 4 57 9 73 11 15 1 33 6 40 10 7 5 6
0 -3 -12 -14 -18 -14 -18 6 -1 12 9 36 19 55 20 19 2 40 6 47 11 6 4 12 5 12
1 0 -3 15 1 34 9 19 8 37 12 40 8 3 -3 6 0 6 7 0 7 4 10 9 6 5 -3 13 0 16 6 4
5 13 8 21 5 8 -3 14 -2 14 2 0 5 26 19 58 31 31 13 67 30 80 38 12 7 27 11 32
8 6 -3 10 -2 10 3 0 4 28 22 63 38 34 16 65 33 68 38 4 5 11 6 17 2 5 -3 12 1
16 9 3 8 10 15 17 15 6 0 23 9 39 20 15 11 30 17 34 13 3 -3 6 -1 6 5 0 7 7
12 15 12 8 0 15 5 15 10 0 6 6 10 14 10 8 0 16 7 20 15 3 8 12 15 21 15 8 0
15 5 15 11 0 5 4 8 9 5 5 -4 11 -3 13 2 1 4 37 30 78 56 41 27 77 52 80 55 3
3 19 13 35 21 17 8 34 21 38 28 5 7 12 10 18 7 5 -4 12 1 15 10 4 9 13 14 21
11 8 -3 12 -2 9 3 -3 4 7 14 22 22 15 8 30 18 34 24 4 5 8 7 8 3 0 -5 9 1 20
12 12 12 25 18 30 15 5 -3 12 0 16 6 5 8 2 10 -7 5 -8 -4 -5 0 5 8 11 9 26 16
33 16 7 0 17 9 23 21 7 12 18 18 26 15 8 -3 13 0 11 7 -1 7 4 11 11 10 6 -2
12 2 12 8 0 6 7 9 14 6 10 -4 13 -1 9 9 -3 7 -1 14 4 14 6 0 26 16 46 35 20
19 39 35 42 35 12 0 34 28 28 34 -4 3 -1 6 4 6 6 0 13 -3 16 -7 2 -5 3 -3 1 3
-1 7 6 21 17 32 13 15 17 29 13 51 -5 23 1 39 25 73 47 65 73 150 76 248 2 65
9 98 28 141 55 122 52 293 -6 409 -18 36 -51 90 -73 120 -22 30 -73 107 -114
170 l-73 115 -3 112 c-1 62 -5 116 -8 122 -4 5 -2 12 3 15 6 4 6 18 1 37 -5
16 -7 105 -4 197 8 227 8 446 1 512 -12 121 -51 292 -78 341 -7 13 -11 24 -9
24 19 0 -150 378 -206 461 -13 19 -24 37 -24 39 0 2 -20 32 -44 67 -24 35 -53
81 -64 103 -25 50 -100 128 -144 151 -94 49 -212 45 -314 -11 l-62 -33 5 66
c3 37 9 71 14 77 34 36 -18 190 -100 298 -26 36 -63 86 -81 112 -21 31 -46 53
-74 65 -22 9 -50 28 -61 40 -31 34 -97 57 -112 38z m1165 -1540 c23 -46 41
-98 34 -98 -4 0 -2 -4 4 -8 16 -11 60 -188 71 -287 3 -27 10 -56 16 -64 8 -10
8 -13 1 -8 -12 7 -10 -125 2 -145 4 -7 3 -8 -4 -4 -8 5 -9 1 -4 -15 5 -12 5
-41 2 -65 -4 -24 -3 -49 1 -56 4 -6 5 -17 1 -23 -4 -5 -8 -23 -9 -40 -2 -37
-12 -290 -13 -325 0 -20 -5 -14 -24 27 -26 55 -62 200 -52 210 3 3 1 14 -4 24
-6 9 -12 118 -15 241 -12 536 -16 604 -30 646 -8 21 11 13 23 -10z m-4385
-1135 c-56 -175 -63 -427 -17 -613 17 -70 82 -220 95 -220 9 0 49 -82 49 -100
0 -6 5 -8 12 -4 6 4 8 3 4 -4 -3 -6 -40 23 -89 70 -45 44 -110 107 -144 140
-35 33 -60 64 -57 69 3 5 1 9 -3 9 -5 0 -17 17 -28 37 -15 28 -20 55 -20 117
1 93 5 117 35 206 34 99 157 340 174 340 2 0 -3 -21 -11 -47z m604 -245 c1 -7
3 -49 7 -93 13 -192 8 -1169 -6 -1135 -6 14 -30 66 -53 115 -81 171 -104 292
-100 525 4 199 16 257 122 558 15 41 29 55 30 30z m223 -1806 c0 -1 -8 2 -19
7 -10 6 -21 7 -25 3 -4 -3 -4 1 -1 10 6 15 8 15 26 0 10 -9 19 -18 19 -20z"/>
</g>
</svg>
